<?xml version="1.0" encoding="utf-8"?>
<!-- Generator: Adobe Illustrator 24.0.0, SVG Export Plug-In . SVG Version: 6.00 Build 0)  -->
<svg version="1.1" id="Layer_1" xmlns="http://www.w3.org/2000/svg" xmlns:xlink="http://www.w3.org/1999/xlink" x="0px" y="0px"
	 viewBox="0 0 841.89 595.28" style="enable-background:new 0 0 841.89 595.28;" xml:space="preserve">
<style type="text/css">
	.st0{fill:#B6914C;}
	.st1{fill:#BE2130;}
</style>
<g>
	<path class="st0" d="M428.28,491.67h18.9v-3.93c-3.94,3.45-8.88,2.94-13.71,2.94h-0.75v-24.21h-5.73c1.14,1.99,1.28,4.13,1.28,6.78
		V491.67z"/>
	<path class="st0" d="M417.17,469.97l2.05-2.11c-2.6-2.08-5.79-3.1-8.94-3.1c-5.46,0-11.47,3.31-13.4,9.64
		c-0.38,1.23-0.58,2.51-0.58,3.81c0,1.29,0.2,2.59,0.58,3.81c1.93,6.34,7.94,9.65,13.4,9.65c3.34,0,6.67-1.15,9.37-3.47v-9.11h-5.73
		c1.14,2.02,1.29,4.13,1.29,6.8v2.61l-0.36,0.25c-1.38,0.96-2.96,1.47-4.57,1.47c-5.52,0-9.49-5.76-9.49-12
		c0-6.23,3.96-11.99,9.49-11.99C412.97,466.23,415.43,467.65,417.17,469.97"/>
	<path class="st0" d="M485.1,469.88l2.07-1.73c-0.91-0.8-1.87-1.4-2.91-1.88c-1.43-0.66-2.9-1.09-4.42-1.33
		c-1.49-0.23-3.02-0.27-4.54-0.08c-1.39,0.17-2.78,0.5-4.08,1.08c-1.1,0.48-2.11,1.16-2.96,2.12c-0.73,0.81-1.19,1.76-1.36,2.91
		l0.25,2.46l1.49,2.08l2.41,1.77c0.96,0.57,1.95,1.06,2.96,1.5c1.03,0.46,2.06,0.9,3.08,1.31l2.79,1.24
		c1.06,0.53,2.42,1.41,2.82,2.78c0.33,1.1,0.13,2.16-0.5,3.06l-2.54,2.05c-1.14,0.53-2.31,0.78-3.53,0.81l-2.39-0.2l-2.32-0.87
		l-2.01-1.59l-0.98-1.42l-2.31,1.95c0.98,0.96,2.09,1.7,3.28,2.26c1.57,0.7,3.17,1.15,4.83,1.36c1.62,0.2,3.26,0.17,4.88-0.14
		c1.5-0.27,2.98-0.72,4.35-1.46c1.14-0.61,2.22-1.44,3.06-2.55c0.72-0.94,1.14-2.04,1.19-3.29l-0.59-2.47l-1.88-2l-2.83-1.65
		c-1.1-0.5-2.19-0.96-3.31-1.42l-2.67-1.09l-2.62-1.38l-1.86-1.93c-0.54-0.92-0.58-1.99-0.3-3l1.54-2.22l2.4-0.95l2.79-0.02
		l2.82,0.78l2.54,1.56L485.1,469.88"/>
	<path class="st0" d="M365.76,466.47L365.76,466.47h-1.28c1.03,1.78,1.25,3.68,1.28,5.96v19.23h4.44v-20.3l14.77,20.3h4.85v-25.19
		h-4.45v21.85l-14.18-19.46c-1.28-1.77-3.05-2.39-5.01-2.39H365.76z"/>
	<path class="st0" d="M452.32,466.47c1.15,2.01,1.29,4.13,1.29,6.79v18.4h4.45v-25.19H452.32z"/>
	<path class="st0" d="M500.66,466.47h-5.76c1.16,2.01,1.31,4.13,1.31,6.79v18.4h4.44v-9.16c0-1.49,1.14-2.75,2.59-2.93h12.61v12.09
		h4.43v-25.19h-4.43v12.1h-15.2V466.47z"/>
	<path class="st0" d="M339.46,491.67h18.9v-3.93c-3.94,3.45-8.88,2.94-13.71,2.94h-0.75v-8.17c0-1.64,1.34-2.98,2.98-2.98h6.59
		v-0.95h-9.57v-11.14h0.75c4.83,0,9.06-0.5,13.02,2.94v-3.91h-19.5c1.14,1.99,1.28,4.13,1.28,6.78V491.67z"/>
	<path class="st1" d="M548.66,283.41c0-1.15-0.12-2.27-0.32-3.35l-0.41-1.37l-0.54-1.72l-0.95-1.82l-0.52-0.97l-1.58-2.01l-0.34-0.4
		l-2.21-1.96l-0.07-0.07c-2.52-1.86-5.59-3.02-8.89-3.24h-0.02l-0.1-0.13h-15.2c-1.06,0-2.08,0.13-3.09,0.31l-0.62,0.12l-2.79,0.86
		l-0.44,0.22l-2.29,1.23l-0.43,0.28l-2.19,1.8l-0.45,0.47l-1.79,2.17l-0.07,0.09l-74.1,108.74L355.14,273.9l-0.07-0.09l-1.78-2.16
		l-0.47-0.48l-2.19-1.8l-0.43-0.28l-2.29-1.23l-0.44-0.22l-2.78-0.86l-0.63-0.12c-1-0.18-2.03-0.31-3.09-0.31h-15.2l-0.11,0.13
		c-3.31,0.22-6.37,1.38-8.88,3.26l-0.08,0.05l-2.22,1.96l-0.34,0.39l-1.58,2.02l-0.52,0.96l-0.95,1.83l-0.53,1.71l-0.41,1.38
		c-0.21,1.08-0.34,2.2-0.34,3.35v146.25h34.13V328.38l71.37,94.08l0.01-0.03v0.01l1.48,1.8l0.85,0.83l1.76,1.46l0.78,0.51l1.95,1.05
		l0.71,0.32l2.67,0.84l0.66,0.11c0.98,0.18,1.99,0.3,3.04,0.3c1.07,0,2.07-0.12,3.07-0.3l0.64-0.11l2.68-0.84l0.71-0.32l1.94-1.05
		l0.79-0.51l1.77-1.46l0.83-0.83l1.49-1.8v-0.01l0.02,0.03l71.37-94.08v101.28h34.12V283.41z"/>
	<path class="st1" d="M634,300.48h153.53v-34.12H633.69c-28.11,0-50.89,22.78-50.89,50.89v61.52c0,28.11,22.79,50.9,50.89,50.9
		h136.79c9.41,0,17.05-7.64,17.05-17.05v-8.63v-8.45v-30.48v-1.41v-15.72c0-9.4-7.6-16.99-16.98-16.99h-85.39v34.12h68.25v30.48H634
		c-9.44,0-17.09-7.65-17.09-17.08v-60.9C616.91,308.12,624.56,300.48,634,300.48"/>
	<path class="st1" d="M292.73,266.35L292.73,266.35H251.2l-62.54,92.84L173.3,382L95.4,266.35H53.86l105.24,155.6l0.12,0.16
		l0.15,0.23h0.01l0.01-0.01l0.33,0.39l1.1,1.35l0.96,0.97l1.46,1.23l1.12,0.76l1.78,0.98l0.8,0.38l2.64,0.82l0.67,0.13
		c0.98,0.18,1.99,0.3,3.03,0.3h0.01h0.01c1.06,0,2.07-0.12,3.07-0.3l0.64-0.13l2.67-0.83l0.72-0.34l1.93-1.05l0.82-0.57l1.71-1.44
		l0.86-0.86l1.47-1.8l0.02,0.01l0.15-0.23l0.12-0.16L292.73,266.35z"/>
	<path class="st0" d="M540.9,476.43l115.67,2.4l0.33,0.35l-0.33,0.32l-115.67,2.4c-1.52,0.03-2.77-1.16-2.79-2.67
		c-0.03-1.53,1.16-2.77,2.68-2.8H540.9"/>
	<path class="st0" d="M317.56,481.9l-115.67-2.4l-0.33-0.35l0.33-0.33l115.67-2.4c1.52-0.03,2.77,1.17,2.79,2.69
		c0.04,1.5-1.16,2.76-2.68,2.79H317.56"/>
	<polygon class="st0" points="429.17,196.15 429.17,196.25 429.38,196.17 429.36,196.17 	"/>
	<path class="st0" d="M429.41,204.9v13.33l-0.03,0.51c0.19,8.49,5.14,15.79,12.29,19.35c-2.14,2.92-3.45,6.55-3.45,10.47
		c0,8.7,6.29,15.95,14.57,17.46h12.04l-0.41-1.85l-1.7-1.92l-0.02-0.02c-2.35-1.51-4.49-3.62-6.2-5.87l-4.82-11.95l-1.65-4.07
		l-2.88-7.15l-12.05-29.82l-1.85-4.56l-0.02-0.08c-0.68-1.58-1.97-2.35-3.65-2.47L429.41,204.9z"/>
	<path class="st0" d="M425.1,242.68c0,2.36,1.91,4.28,4.27,4.28c2.36,0,4.26-1.92,4.26-4.28c0-2.37-1.9-4.28-4.26-4.28
		C427.01,238.39,425.1,240.31,425.1,242.68"/>
	<polygon class="st0" points="429.39,196.17 429.37,196.17 429.58,196.25 429.58,196.15 	"/>
	<path class="st0" d="M425.51,198.71l-0.03,0.08l-1.82,4.56l-12.06,29.82l-2.89,7.17l-1.64,4.06l-4.83,11.96
		c-1.7,2.24-3.83,4.36-6.19,5.86l-0.01,0.03l-1.71,1.92l-0.41,1.85h12.03c8.28-1.5,14.58-8.75,14.58-17.45
		c0-3.93-1.3-7.55-3.46-10.46c7.16-3.57,12.1-10.87,12.3-19.36l-0.03-0.5v-13.33l-0.17-8.67
		C427.49,196.37,426.2,197.12,425.51,198.71"/>
	<polygon class="st0" points="429.17,196.24 429.35,204.9 429.35,218.23 429.38,218.74 429.4,218.23 429.4,204.9 429.58,196.24 
		429.38,196.17 	"/>
	<polygon class="st0" points="437.02,190.33 436.93,190.5 437,190.51 437.03,190.32 	"/>
	<path class="st0" d="M512.5,177.98l-2.36,1.05l-0.02,0.01c-2.16,1.76-4.83,3.13-7.5,4.06L489.79,184l-4.39,0.31l-7.7,0.53
		l-32.09,2.24l-4.88,0.34l-0.1,0.01c-1.7,0.16-2.83,1.15-3.48,2.7l8.19,2.83L458,197.1l0.48,0.18c8.14,2.45,16.61-0.01,22.2-5.71
		c2.12,2.96,5.17,5.29,8.91,6.5c8.27,2.72,17.1-1.02,21.08-8.44l0.98-3.02l0.96-2.99l1.77-5.45l-1.36-0.22L512.5,177.98"/>
	<path class="st0" d="M477.18,203.35c-0.73,2.25,0.5,4.67,2.74,5.39c2.25,0.74,4.66-0.5,5.38-2.74c0.74-2.26-0.5-4.65-2.75-5.39
		l-1.32-0.21C479.44,200.4,477.77,201.55,477.18,203.35"/>
	<path class="st0" d="M438.25,194.77l0.06,0.06l3.76,3.14l24.65,20.67l5.91,4.96l3.36,2.82l9.85,8.27c1.6,2.33,2.96,5.02,3.67,7.73
		l0.01,0.01l1.29,2.23l1.63,0.95l1.78-5.44l0.98-2.99l0.97-3.03c1.13-8.32-3.79-16.54-12.07-19.25c-3.73-1.19-7.58-1.09-11.04,0.04
		c-1.17-7.91-6.59-14.86-14.61-17.66l-0.5-0.11l-12.66-4.13l-8.32-2.53C436.61,192.17,436.94,193.62,438.25,194.77"/>
	<polygon class="st0" points="437.03,190.29 437.03,190.31 437.15,190.12 437.06,190.09 	"/>
	<polygon class="st0" points="437.03,190.31 437,190.51 445.32,193.04 457.99,197.17 458.47,197.28 458.01,197.09 445.33,192.97 
		437.15,190.13 	"/>
	<polygon class="st0" points="433.82,181.22 433.83,181.23 433.96,181.38 434,181.33 	"/>
	<path class="st0" d="M445.42,105.62l0.23,2.57l0.01,0.03c1.03,2.61,1.52,5.57,1.58,8.38l-3.12,12.49l-1.06,4.28l-1.86,7.48
		l-7.79,31.21l-1.18,4.76l-0.02,0.07c-0.38,1.72,0.18,3.09,1.47,4.19l5.25-6.93l7.84-10.77l0.32-0.4c4.84-6.98,5.11-15.8,1.42-22.89
		c3.48-1.1,6.65-3.27,8.96-6.44c5.12-7.03,4.29-16.59-1.54-22.66l-2.57-1.89l-2.57-1.84l-4.62-3.35L445.42,105.62"/>
	<path class="st0" d="M457.68,141.09c-1.39,1.93-0.96,4.58,0.94,5.97c1.93,1.39,4.59,0.97,5.97-0.94c1.39-1.9,0.96-4.57-0.95-5.97
		l-2.49-0.81C459.82,139.34,458.52,139.95,457.68,141.09"/>
	<path class="st0" d="M471.75,144.05c-2.3,3.18-3.39,6.85-3.36,10.5c-7.9-1.32-16.18,1.67-21.31,8.42l-0.28,0.43l-7.84,10.78
		l-4.96,7.14c1.44,0.88,2.92,1,4.43,0.1l0.08-0.04l4.15-2.59l27.28-17.06l6.56-4.1l3.71-2.32l10.93-6.84c2.7-0.8,5.67-1.26,8.46-1.1
		h0.03l2.51-0.56l1.42-1.25l-4.63-3.37l-2.55-1.85l-2.57-1.87c-2.46-1.17-5.09-1.75-7.7-1.75
		C480.63,136.75,475.21,139.27,471.75,144.05"/>
	<polygon class="st0" points="433.62,181.12 433.8,181.22 433.82,181.23 433.65,181.08 	"/>
	<polygon class="st0" points="446.75,163.37 438.91,174.16 433.65,181.09 433.82,181.22 434.01,181.33 438.96,174.19 446.8,163.41 
		447.07,162.98 	"/>
	<path class="st0" d="M364.2,138.74l-2.58,1.86l-2.55,1.87l-4.64,3.37l1.43,1.23l2.51,0.58h0.02c2.8-0.18,5.77,0.27,8.46,1.1
		l10.92,6.83l3.72,2.31l6.54,4.11l27.29,17.05l4.16,2.58l0.07,0.06c1.5,0.88,2.99,0.76,4.42-0.11l-4.96-7.12l-7.83-10.79l-0.26-0.45
		c-5.16-6.73-13.44-9.74-21.31-8.41c0-3.65-1.08-7.34-3.4-10.51c-3.46-4.77-8.87-7.3-14.35-7.3
		C369.27,136.99,366.65,137.58,364.2,138.74"/>
	<polygon class="st0" points="424.18,181.47 424.19,181.46 424.36,181.37 424.33,181.33 	"/>
	<path class="st0" d="M394.33,140.4c-1.91,1.39-2.34,4.08-0.94,5.97c1.39,1.92,4.06,2.33,5.96,0.95c1.92-1.38,2.33-4.05,0.94-5.96
		c-0.83-1.17-2.14-1.77-3.46-1.77L394.33,140.4"/>
	<polygon class="st0" points="423.98,181.57 424.01,181.62 424.17,181.49 424.19,181.47 	"/>
	<path class="st0" d="M407.19,107.5l-2.53,1.86l-2.59,1.87c-5.8,6.08-6.65,15.61-1.53,22.68c2.33,3.18,5.48,5.33,8.96,6.44
		c-3.7,7.07-3.42,15.87,1.43,22.86l0.32,0.39l7.84,10.81l5.25,6.93c1.28-1.1,1.86-2.49,1.47-4.19l-0.02-0.09l-1.18-4.74l-7.78-31.22
		l-1.88-7.5l-1.05-4.25l-3.12-12.49c0.06-2.81,0.55-5.79,1.57-8.38v-0.04l0.24-2.56l-0.74-1.74L407.19,107.5z"/>
	<polygon class="st0" points="410.92,163.21 411.18,163.65 419.01,174.45 423.98,181.57 424.18,181.46 424.32,181.33 419.08,174.41 
		411.24,163.6 	"/>
	<path class="st0" d="M413.15,193.44l-12.69,4.13l-0.49,0.11c-8.01,2.81-13.42,9.77-14.59,17.67c-3.45-1.14-7.3-1.24-11.03-0.03
		c-8.28,2.69-13.23,10.9-12.09,19.24l0.98,3.02l0.96,3l1.78,5.43l1.61-0.96l1.31-2.23l0.01-0.03c0.7-2.69,2.05-5.38,3.67-7.69
		l9.86-8.27l3.36-2.83l5.9-4.96l24.67-20.67l3.75-3.16l0.06-0.04c1.31-1.16,1.67-2.6,1.27-4.28L413.15,193.44z"/>
	<polygon class="st0" points="421.3,190.53 421.44,190.72 421.44,190.7 421.4,190.5 	"/>
	<path class="st0" d="M375.9,201.02c-2.25,0.73-3.47,3.14-2.75,5.38c0.72,2.23,3.13,3.47,5.39,2.73c2.24-0.72,3.46-3.13,2.73-5.38
		c-0.59-1.81-2.25-2.95-4.05-2.95L375.9,201.02"/>
	<polygon class="st0" points="421.44,190.71 421.47,190.92 421.53,190.9 421.45,190.73 	"/>
	<path class="st0" d="M344.07,178.56l1.77,5.45l0.97,3l0.98,3c3.99,7.42,12.81,11.17,21.09,8.48c3.73-1.23,6.79-3.56,8.89-6.52
		c5.6,5.7,14.07,8.14,22.2,5.7l0.49-0.19l12.68-4.11l8.17-2.86c-0.64-1.55-1.76-2.52-3.49-2.7l-0.09-0.01l-4.89-0.33l-32.08-2.24
		l-7.71-0.53l-4.37-0.33l-12.84-0.89c-2.67-0.93-5.33-2.3-7.49-4.08l-0.02-0.01l-2.36-1.04l-0.53-0.03L344.07,178.56"/>
	<polygon class="st0" points="413.13,193.38 400.44,197.49 399.97,197.68 400.46,197.57 413.14,193.44 421.47,190.9 421.44,190.72 
		421.29,190.53 	"/>
</g>
</svg>
